<svg width="1440" height="215" viewBox="0 0 1440 215" fill="none" xmlns="http://www.w3.org/2000/svg">
<path fill-rule="evenodd" clip-rule="evenodd" d="M0 185L80 160.746C160 136.967 320 88.9332 480 92.2622C640 96.0668 800 150.758 960 150.758C1120 150.758 1280 96.0668 1360 68.4833L1440 40.8997V0H1360C1280 0 1120 0 960 0C800 0 640 0 480 0C320 0 160 0 80 0H0V185Z" fill="#FEE600"/>
<path d="M0 160L80 135.746C160 111.967 320 63.9332 480 67.2622C640 71.0668 800 125.758 960 125.758C1120 125.758 1280 71.0668 1360 43.4833L1440 15.8997" stroke="#FC1F1F" stroke-opacity="0.88" stroke-width="10"/>
<path d="M0 190.1L80 165.846C160 142.067 320 94.0334 480 97.3624C640 101.167 800 155.859 960 155.859C1120 155.859 1280 101.167 1360 73.5835L1440 46" stroke="#11FF0C" stroke-opacity="0.8" stroke-width="10"/>
<path d="M0 169.1L80 144.846C160 121.067 320 73.0334 480 76.3624C640 80.1671 800 134.859 960 134.859C1120 134.859 1280 80.1671 1360 52.5835L1440 25" stroke="#FA731B" stroke-width="10"/>
<path d="M0 200.2L80 175.946C160 152.167 320 104.134 480 107.463C640 111.267 800 165.959 960 165.959C1120 165.959 1280 111.267 1360 83.6837L1440 56.1002" stroke="#1BAAFA" stroke-width="10"/>
<path d="M0 210.1L80 185.846C160 162.067 320 114.033 480 117.362C640 121.167 800 175.859 960 175.859C1120 175.859 1280 121.167 1360 93.5835L1440 66" stroke="#C01BFA" stroke-width="10"/>
</svg>
