<svg width="22" height="22" viewBox="0 0 22 22" fill="none" xmlns="http://www.w3.org/2000/svg">
<path d="M11 22C17.0751 22 22 17.0751 22 11C22 4.92486 17.0751 0 11 0C4.92486 0 0 4.92486 0 11C0 17.0751 4.92486 22 11 22ZM11.8419 16.8223L11.3693 14.6456C12.7542 14.339 14.0277 13.9403 13.9246 12.3938H12.2971V6.60104H17.1996V12.0151C17.1978 16.3178 14.0389 16.6679 11.8419 16.8223ZM5.27441 16.8223L4.80042 14.6456C6.18534 14.339 7.45884 13.9403 7.35572 12.3938H5.72827V6.60104H10.6307V12.0151C10.629 16.3178 7.47138 16.6679 5.27441 16.8223Z" fill="#FEE600"/>
</svg>
