<svg width="1440" height="717" viewBox="0 0 1440 717" fill="none" xmlns="http://www.w3.org/2000/svg">
<path fill-rule="evenodd" clip-rule="evenodd" d="M1440 0H0V502V687L80 662.745L82.2017 662.091C162.909 638.097 321.455 590.963 480 594.262C557.117 596.096 634.234 609.751 711.351 623.406C794.234 638.082 877.117 652.758 960 652.758C1120 652.758 1280 598.067 1360 570.483L1440 542.9V502V0Z" fill="#FEE600"/>
<path d="M0 662L80 637.746C160 613.967 320 565.933 480 569.262C640 573.067 800 627.758 960 627.758C1120 627.758 1280 573.067 1360 545.483L1440 517.9" stroke="#FC1F1F" stroke-opacity="0.88" stroke-width="10"/>
<path d="M0 692.1L80 667.846C160 644.067 320 596.033 480 599.362C640 603.167 800 657.859 960 657.859C1120 657.859 1280 603.167 1360 575.584L1440 548" stroke="#11FF0C" stroke-opacity="0.8" stroke-width="10"/>
<path d="M0 671.1L80 646.846C160 623.067 320 575.033 480 578.362C640 582.167 800 636.859 960 636.859C1120 636.859 1280 582.167 1360 554.584L1440 527" stroke="#FA731B" stroke-width="10"/>
<path d="M0 702.2L80 677.946C160 654.167 320 606.134 480 609.463C640 613.267 800 667.959 960 667.959C1120 667.959 1280 613.267 1360 585.684L1440 558.1" stroke="#1BAAFA" stroke-width="10"/>
<path d="M0 712.1L80 687.846C160 664.067 320 616.033 480 619.362C640 623.167 800 677.859 960 677.859C1120 677.859 1280 623.167 1360 595.584L1440 568" stroke="#C01BFA" stroke-width="10"/>
</svg>
