<svg width="88" height="40" viewBox="0 0 88 40" fill="none" xmlns="http://www.w3.org/2000/svg">
<path d="M3.85156 2.07129H2.60352V16.0195H3.85156V17.9795H0.0546875V0.111328H3.85156V2.07129ZM9.63477 15V2.20312H13.5723C14.6973 2.20312 15.7021 2.45801 16.5869 2.96777C17.4775 3.47168 18.1719 4.19238 18.6699 5.12988C19.168 6.06152 19.417 7.12207 19.417 8.31152V8.90039C19.417 10.0898 19.1709 11.1475 18.6787 12.0732C18.1924 12.999 17.5039 13.7168 16.6133 14.2266C15.7227 14.7363 14.7178 14.9941 13.5986 15H9.63477ZM12.2715 4.33887V12.8818H13.5459C14.5771 12.8818 15.3652 12.5449 15.9102 11.8711C16.4551 11.1973 16.7334 10.2334 16.7451 8.97949V8.30273C16.7451 7.00195 16.4756 6.01758 15.9365 5.34961C15.3975 4.67578 14.6094 4.33887 13.5723 4.33887H12.2715ZM23.8555 15H21.3066V5.49023H23.8555V15ZM21.1572 3.0293C21.1572 2.64844 21.2832 2.33496 21.5352 2.08887C21.793 1.84277 22.1416 1.71973 22.5811 1.71973C23.0146 1.71973 23.3604 1.84277 23.6182 2.08887C23.876 2.33496 24.0049 2.64844 24.0049 3.0293C24.0049 3.41602 23.873 3.73242 23.6094 3.97852C23.3516 4.22461 23.0088 4.34766 22.5811 4.34766C22.1533 4.34766 21.8076 4.22461 21.5439 3.97852C21.2861 3.73242 21.1572 3.41602 21.1572 3.0293ZM29.5156 11.8975L31.2822 5.49023H33.9365L30.7285 15H28.3027L25.0947 5.49023H27.749L29.5156 11.8975ZM39.3154 15.1758C37.9209 15.1758 36.7842 14.748 35.9053 13.8926C35.0322 13.0371 34.5957 11.8975 34.5957 10.4736V10.2275C34.5957 9.27246 34.7803 8.41992 35.1494 7.66992C35.5186 6.91406 36.04 6.33398 36.7139 5.92969C37.3936 5.51953 38.167 5.31445 39.0342 5.31445C40.335 5.31445 41.3574 5.72461 42.1016 6.54492C42.8516 7.36523 43.2266 8.52832 43.2266 10.0342V11.0713H37.1709C37.2529 11.6924 37.499 12.1904 37.9092 12.5654C38.3252 12.9404 38.8496 13.1279 39.4824 13.1279C40.4609 13.1279 41.2256 12.7734 41.7764 12.0645L43.0244 13.4619C42.6436 14.001 42.1279 14.4229 41.4775 14.7275C40.8271 15.0264 40.1064 15.1758 39.3154 15.1758ZM39.0254 7.37109C38.5215 7.37109 38.1113 7.54102 37.7949 7.88086C37.4844 8.2207 37.2852 8.70703 37.1973 9.33984H40.7305V9.1377C40.7188 8.5752 40.5664 8.1416 40.2734 7.83691C39.9805 7.52637 39.5645 7.37109 39.0254 7.37109ZM50.0205 7.87207C49.6748 7.8252 49.3701 7.80176 49.1064 7.80176C48.1455 7.80176 47.5156 8.12695 47.2168 8.77734V15H44.6768V5.49023H47.0762L47.1465 6.62402C47.6562 5.75098 48.3623 5.31445 49.2646 5.31445C49.5459 5.31445 49.8096 5.35254 50.0557 5.42871L50.0205 7.87207ZM56.4014 12.3721C56.4014 12.0615 56.2461 11.8184 55.9355 11.6426C55.6309 11.4609 55.1387 11.2998 54.459 11.1592C52.1973 10.6846 51.0664 9.72363 51.0664 8.27637C51.0664 7.43262 51.415 6.72949 52.1123 6.16699C52.8154 5.59863 53.7324 5.31445 54.8633 5.31445C56.0703 5.31445 57.0342 5.59863 57.7549 6.16699C58.4814 6.73535 58.8447 7.47363 58.8447 8.38184H56.3047C56.3047 8.01855 56.1875 7.71973 55.9531 7.48535C55.7188 7.24512 55.3525 7.125 54.8545 7.125C54.4268 7.125 54.0957 7.22168 53.8613 7.41504C53.627 7.6084 53.5098 7.85449 53.5098 8.15332C53.5098 8.43457 53.6416 8.66309 53.9053 8.83887C54.1748 9.00879 54.626 9.1582 55.2588 9.28711C55.8916 9.41016 56.4248 9.55078 56.8584 9.70898C58.2002 10.2012 58.8711 11.0537 58.8711 12.2666C58.8711 13.1338 58.499 13.8369 57.7549 14.376C57.0107 14.9092 56.0498 15.1758 54.8721 15.1758C54.0752 15.1758 53.3662 15.0352 52.7451 14.7539C52.1299 14.4668 51.6465 14.0771 51.2949 13.585C50.9434 13.0869 50.7676 12.5508 50.7676 11.9766H53.1758C53.1992 12.4277 53.3662 12.7734 53.6768 13.0137C53.9873 13.2539 54.4033 13.374 54.9248 13.374C55.4111 13.374 55.7773 13.2832 56.0234 13.1016C56.2754 12.9141 56.4014 12.6709 56.4014 12.3721ZM63.1953 15H60.6465V5.49023H63.1953V15ZM60.4971 3.0293C60.4971 2.64844 60.623 2.33496 60.875 2.08887C61.1328 1.84277 61.4814 1.71973 61.9209 1.71973C62.3545 1.71973 62.7002 1.84277 62.958 2.08887C63.2158 2.33496 63.3447 2.64844 63.3447 3.0293C63.3447 3.41602 63.2129 3.73242 62.9492 3.97852C62.6914 4.22461 62.3486 4.34766 61.9209 4.34766C61.4932 4.34766 61.1475 4.22461 60.8838 3.97852C60.626 3.73242 60.4971 3.41602 60.4971 3.0293Z" fill="white"/>
<path d="M18.2129 25.3389H14.293V36H11.6562V25.3389H7.78906V23.2031H18.2129V25.3389ZM24.3213 28.8721C23.9756 28.8252 23.6709 28.8018 23.4072 28.8018C22.4463 28.8018 21.8164 29.127 21.5176 29.7773V36H18.9775V26.4902H21.377L21.4473 27.624C21.957 26.751 22.6631 26.3145 23.5654 26.3145C23.8467 26.3145 24.1104 26.3525 24.3564 26.4287L24.3213 28.8721ZM30.7988 36C30.6816 35.7715 30.5967 35.4873 30.5439 35.1475C29.9287 35.833 29.1289 36.1758 28.1445 36.1758C27.2129 36.1758 26.4395 35.9062 25.8242 35.3672C25.2148 34.8281 24.9102 34.1484 24.9102 33.3281C24.9102 32.3203 25.2822 31.5469 26.0264 31.0078C26.7764 30.4688 27.8574 30.1963 29.2695 30.1904H30.4385V29.6455C30.4385 29.2061 30.3242 28.8545 30.0957 28.5908C29.873 28.3271 29.5186 28.1953 29.0322 28.1953C28.6045 28.1953 28.2676 28.2979 28.0215 28.5029C27.7812 28.708 27.6611 28.9893 27.6611 29.3467H25.1211C25.1211 28.7959 25.291 28.2861 25.6309 27.8174C25.9707 27.3486 26.4512 26.9824 27.0723 26.7188C27.6934 26.4492 28.3906 26.3145 29.1641 26.3145C30.3359 26.3145 31.2646 26.6104 31.9502 27.2021C32.6416 27.7881 32.9873 28.6143 32.9873 29.6807V33.8027C32.9932 34.7051 33.1191 35.3877 33.3652 35.8506V36H30.7988ZM28.6982 34.2334C29.0732 34.2334 29.4189 34.1514 29.7354 33.9873C30.0518 33.8174 30.2861 33.5918 30.4385 33.3105V31.6758H29.4893C28.2178 31.6758 27.541 32.1152 27.459 32.9941L27.4502 33.1436C27.4502 33.46 27.5615 33.7207 27.7842 33.9258C28.0068 34.1309 28.3115 34.2334 28.6982 34.2334ZM37.3203 26.4902L37.3994 27.5537C38.0732 26.7275 38.9844 26.3145 40.1328 26.3145C41.3574 26.3145 42.1982 26.7979 42.6553 27.7646C43.3232 26.7979 44.2754 26.3145 45.5117 26.3145C46.543 26.3145 47.3105 26.6162 47.8145 27.2197C48.3184 27.8174 48.5703 28.7197 48.5703 29.9268V36H46.0215V29.9355C46.0215 29.3965 45.916 29.0039 45.7051 28.7578C45.4941 28.5059 45.1221 28.3799 44.5889 28.3799C43.8271 28.3799 43.2998 28.7432 43.0068 29.4697L43.0156 36H40.4756V29.9443C40.4756 29.3936 40.3672 28.9951 40.1504 28.749C39.9336 28.5029 39.5645 28.3799 39.043 28.3799C38.3223 28.3799 37.8008 28.6787 37.4785 29.2764V36H34.9385V26.4902H37.3203ZM59.0908 31.333C59.0908 32.7979 58.7568 33.9727 58.0889 34.8574C57.4268 35.7363 56.5303 36.1758 55.3994 36.1758C54.4385 36.1758 53.6621 35.8418 53.0703 35.1738V39.6562H50.5303V26.4902H52.8857L52.9736 27.4219C53.5889 26.6836 54.3916 26.3145 55.3818 26.3145C56.5537 26.3145 57.4648 26.748 58.1152 27.6152C58.7656 28.4824 59.0908 29.6777 59.0908 31.2012V31.333ZM56.5508 31.1484C56.5508 30.2637 56.3926 29.5811 56.0762 29.1006C55.7656 28.6201 55.3115 28.3799 54.7139 28.3799C53.917 28.3799 53.3691 28.6846 53.0703 29.2939V33.1875C53.3809 33.8145 53.9346 34.1279 54.7314 34.1279C55.9443 34.1279 56.5508 33.1348 56.5508 31.1484ZM60.2773 31.1572C60.2773 30.2139 60.459 29.373 60.8223 28.6348C61.1855 27.8965 61.707 27.3252 62.3867 26.9209C63.0723 26.5166 63.8662 26.3145 64.7686 26.3145C66.0518 26.3145 67.0977 26.707 67.9062 27.4922C68.7207 28.2773 69.1748 29.3438 69.2686 30.6914L69.2861 31.3418C69.2861 32.8008 68.8789 33.9727 68.0645 34.8574C67.25 35.7363 66.1572 36.1758 64.7861 36.1758C63.415 36.1758 62.3193 35.7363 61.499 34.8574C60.6846 33.9785 60.2773 32.7832 60.2773 31.2715V31.1572ZM62.8174 31.3418C62.8174 32.2441 62.9873 32.9355 63.3271 33.416C63.667 33.8906 64.1533 34.1279 64.7861 34.1279C65.4014 34.1279 65.8818 33.8936 66.2275 33.4248C66.5732 32.9502 66.7461 32.1943 66.7461 31.1572C66.7461 30.2725 66.5732 29.5869 66.2275 29.1006C65.8818 28.6143 65.3955 28.3711 64.7686 28.3711C64.1475 28.3711 63.667 28.6143 63.3271 29.1006C62.9873 29.5811 62.8174 30.3281 62.8174 31.3418ZM76.001 33.3721C76.001 33.0615 75.8457 32.8184 75.5352 32.6426C75.2305 32.4609 74.7383 32.2998 74.0586 32.1592C71.7969 31.6846 70.666 30.7236 70.666 29.2764C70.666 28.4326 71.0146 27.7295 71.7119 27.167C72.415 26.5986 73.332 26.3145 74.4629 26.3145C75.6699 26.3145 76.6338 26.5986 77.3545 27.167C78.0811 27.7354 78.4443 28.4736 78.4443 29.3818H75.9043C75.9043 29.0186 75.7871 28.7197 75.5527 28.4854C75.3184 28.2451 74.9521 28.125 74.4541 28.125C74.0264 28.125 73.6953 28.2217 73.4609 28.415C73.2266 28.6084 73.1094 28.8545 73.1094 29.1533C73.1094 29.4346 73.2412 29.6631 73.5049 29.8389C73.7744 30.0088 74.2256 30.1582 74.8584 30.2871C75.4912 30.4102 76.0244 30.5508 76.458 30.709C77.7998 31.2012 78.4707 32.0537 78.4707 33.2666C78.4707 34.1338 78.0986 34.8369 77.3545 35.376C76.6104 35.9092 75.6494 36.1758 74.4717 36.1758C73.6748 36.1758 72.9658 36.0352 72.3447 35.7539C71.7295 35.4668 71.2461 35.0771 70.8945 34.585C70.543 34.0869 70.3672 33.5508 70.3672 32.9766H72.7754C72.7988 33.4277 72.9658 33.7734 73.2764 34.0137C73.5869 34.2539 74.0029 34.374 74.5244 34.374C75.0107 34.374 75.377 34.2832 75.623 34.1016C75.875 33.9141 76.001 33.6709 76.001 33.3721ZM83.7354 21.1113H87.5322V38.9795H83.7354V37.0195H84.9922V23.0713H83.7354V21.1113Z" fill="#FEE600"/>
</svg>
