<svg width="100" height="100" viewBox="0 0 100 100" fill="none" xmlns="http://www.w3.org/2000/svg">
<path d="M85.088 80.271C87.803 80.271 90 78.071 90 75.354V24.645C90.0007 23.9996 89.8741 23.3603 89.6275 22.7638C89.381 22.1672 89.0193 21.6251 88.5631 21.1685C88.1069 20.7118 87.5652 20.3496 86.9689 20.1024C86.3726 19.8552 85.7335 19.728 85.088 19.728H14.912C14.2666 19.7282 13.6275 19.8555 13.0313 20.1027C12.435 20.3499 11.8934 20.7122 11.4372 21.1688C10.9811 21.6254 10.6193 22.1674 10.3727 22.7639C10.1261 23.3604 9.99948 23.9996 10 24.645V75.354C9.99935 75.9995 10.1259 76.6388 10.3725 77.2353C10.619 77.8318 10.9807 78.3739 11.4369 78.8306C11.8931 79.2872 12.4348 79.6495 13.0311 79.8966C13.6274 80.1438 14.2665 80.271 14.912 80.271H85.088ZM80.175 70.443H19.825V29.556H80.175V70.443Z" fill="#4B4A4A"/>
<path d="M41.564 65.8971C40.637 65.8971 39.745 65.5271 39.083 64.8681L34.187 59.9711L28.227 64.9031C27.8721 65.1973 27.4626 65.4188 27.022 65.5546C26.5814 65.6905 26.1184 65.7381 25.6594 65.6948C25.2004 65.6516 24.7544 65.5182 24.347 65.3024C23.9395 65.0866 23.5787 64.7925 23.285 64.4371C22.692 63.7199 22.408 62.7966 22.4954 61.8701C22.5828 60.9436 23.0344 60.0898 23.751 59.4961L32.175 52.5271C32.8478 51.9692 33.7047 51.6828 34.5777 51.7241C35.4507 51.7653 36.2768 52.1312 36.894 52.7501L40.966 56.8251L49.945 42.8361C50.2812 42.3067 50.7545 41.8783 51.3145 41.5963C51.8746 41.3142 52.5005 41.1891 53.126 41.2341C54.398 41.3161 55.526 42.0801 56.071 43.2361L61.37 54.4421L71.602 36.4501C72.0634 35.6419 72.8261 35.0495 73.7233 34.8025C74.6205 34.5555 75.579 34.674 76.389 35.1321C77.1976 35.5938 77.7902 36.3573 78.0367 37.2552C78.2832 38.1532 78.1636 39.1122 77.704 39.9221L64.133 63.7841C63.8127 64.3399 63.3473 64.7981 62.7866 65.1097C62.226 65.4213 61.5911 65.5746 60.95 65.5531C60.3075 65.5301 59.6838 65.3306 59.1474 64.9764C58.6109 64.6221 58.1824 64.1269 57.909 63.5451L52.43 51.9541L44.516 64.2801C44.1987 64.7752 43.7621 65.1827 43.2463 65.4653C42.7306 65.7478 42.1521 65.8963 41.564 65.8971Z" fill="#4B4A4A"/>
</svg>
