<svg width="100" height="100" viewBox="0 0 100 100" fill="none" xmlns="http://www.w3.org/2000/svg">
<path d="M90 22.292C89.9991 20.611 89.3465 18.9958 88.1795 17.7859C87.0125 16.576 85.4219 15.8656 83.742 15.804V15.792H16.848V15.81C16.732 15.804 16.617 15.792 16.5 15.792C15.1557 15.7929 13.8448 16.2105 12.7478 16.9874C11.6507 17.7643 10.8215 18.8622 10.3744 20.1299C9.92722 21.3976 9.88413 22.7728 10.251 24.066C10.6179 25.3593 11.3767 26.5069 12.423 27.351L42.563 57.49L42.562 76.089V76.243H42.577C42.6023 76.8165 42.7727 77.3743 43.0723 77.864C43.3719 78.3537 43.7909 78.7594 44.29 79.043L44.281 79.059L52.153 83.604C52.219 83.65 52.292 83.683 52.361 83.724L52.389 83.74V83.739C52.891 84.029 53.467 84.208 54.089 84.208C54.5376 84.2081 54.9819 84.1199 55.3964 83.9482C55.8109 83.7766 56.1875 83.525 56.5048 83.2078C56.822 82.8905 57.0736 82.5139 57.2452 82.0994C57.4169 81.6849 57.5051 81.2406 57.505 80.792C57.505 80.702 57.485 80.617 57.479 80.529H57.505V57.518L87.922 27.102L87.892 27.072C88.5563 26.4655 89.0868 25.7272 89.4497 24.9041C89.8127 24.0811 90.0001 23.1915 90 22.292ZM32.249 28.792H32.263L32.264 28.807L32.249 28.792Z" fill="#4B4A4A"/>
</svg>
