<svg width="100" height="100" viewBox="0 0 100 100" fill="none" xmlns="http://www.w3.org/2000/svg">
<path d="M80.302 18.915L80.344 18.873L80.336 18.865C80.59 18.5914 80.7283 18.2301 80.7222 17.8569C80.716 17.4836 80.5658 17.1271 80.303 16.862L78.25 14.809C77.9849 14.5462 77.6284 14.396 77.2551 14.3898C76.8819 14.3837 76.5207 14.5221 76.247 14.776L76.238 14.767L67.396 23.61C67.1238 23.8823 66.9709 24.2515 66.9709 24.6365C66.9709 25.0215 67.1238 25.3907 67.396 25.663L69.449 27.717H69.45C69.7223 27.9892 70.0915 28.1421 70.4765 28.1421C70.8615 28.1421 71.2307 27.9892 71.503 27.717L80.302 18.915Z" fill="#4B4A4A"/>
<path d="M48.548 19.2741V19.2751H51.451V19.2741C52.233 19.2741 52.866 18.6551 52.897 17.8811H52.903V5.37807C52.903 4.57607 52.253 3.92607 51.451 3.92607V3.92407H48.548V3.92507C47.746 3.92507 47.096 4.57507 47.096 5.37707V17.8811H47.102C47.1165 18.2551 47.2751 18.609 47.5446 18.8686C47.8142 19.1283 48.1737 19.2736 48.548 19.2741Z" fill="#4B4A4A"/>
<path d="M91.613 39.9969C91.613 39.2139 90.994 38.5819 90.22 38.5509V38.5449H77.716C76.914 38.5449 76.264 39.1939 76.264 39.9969V42.8999C76.264 43.7029 76.914 44.3529 77.716 44.3529H90.22V44.3469C90.5941 44.3322 90.948 44.1734 91.2076 43.9037C91.4673 43.634 91.6125 43.2743 91.613 42.8999V39.9969Z" fill="#4B4A4A"/>
<path d="M50 24.2009C38.244 24.2009 28.715 33.7299 28.715 45.4859C28.7129 49.9151 30.1008 54.2333 32.683 57.8319H32.675C35.849 62.7839 37.832 69.3439 37.978 76.5709C38.233 76.9899 38.689 77.2739 39.215 77.2739C39.271 77.2739 39.324 77.2639 39.378 77.2569V77.2739H60.55V77.2569C60.604 77.2629 60.657 77.2739 60.712 77.2739C60.9845 77.2732 61.2512 77.1957 61.4817 77.0503C61.7122 76.9049 61.897 76.6975 62.015 76.4519C62.19 68.8679 64.386 62.0229 67.858 57.0129C70.012 53.6889 71.285 49.7429 71.285 45.4869C71.285 33.7299 61.756 24.2009 50 24.2009Z" fill="#4B4A4A"/>
<path d="M60.712 89.7881C60.656 89.7881 60.604 89.7981 60.55 89.8051V89.7881H39.378V89.8051C39.324 89.7991 39.271 89.7881 39.215 89.7881C38.414 89.7881 37.763 90.4371 37.763 91.2401V94.6241C37.763 95.4261 38.413 96.0761 39.215 96.0761C39.271 96.0761 39.324 96.0661 39.378 96.0591V96.0761H60.55V96.0601C60.604 96.0661 60.657 96.0761 60.712 96.0761C61.514 96.0761 62.164 95.4261 62.164 94.6241V91.2401C62.164 90.4371 61.514 89.7881 60.712 89.7881Z" fill="#4B4A4A"/>
<path d="M60.712 80.3479C60.656 80.3479 60.604 80.3579 60.55 80.3649V80.3479H39.378V80.3649C39.324 80.3589 39.271 80.3479 39.215 80.3479C38.839 80.3485 38.4779 80.4951 38.2079 80.7569C37.9379 81.0187 37.7802 81.3751 37.768 81.7509L37.763 81.8079V85.1839C37.763 85.9859 38.413 86.6359 39.215 86.6359C39.271 86.6359 39.324 86.6259 39.378 86.6189V86.6359H60.55V86.6199C60.604 86.6259 60.657 86.6369 60.712 86.6369C61.514 86.6369 62.164 85.9869 62.164 85.1849V81.7999C62.164 80.9969 61.514 80.3479 60.712 80.3479Z" fill="#4B4A4A"/>
<path d="M22.344 39.685V39.679H9.83899C9.03699 39.679 8.38699 40.329 8.38699 41.13V44.034C8.38699 44.835 9.03699 45.485 9.83899 45.485H22.344V45.48C22.7177 45.4653 23.0713 45.3067 23.3309 45.0374C23.5905 44.7681 23.736 44.409 23.737 44.035V41.13C23.736 40.7559 23.5905 40.3968 23.3309 40.1275C23.0713 39.8582 22.7177 39.6997 22.344 39.685Z" fill="#4B4A4A"/>
<path d="M20.199 18.415L29.041 27.2579L29.05 27.249C29.619 27.7719 30.5 27.7679 31.052 27.2159H31.053L33.106 25.162C33.3691 24.8969 33.5194 24.5404 33.5256 24.1671C33.5317 23.7937 33.3932 23.4325 33.139 23.1589L33.148 23.1499L24.305 14.3079C24.0326 14.036 23.6634 13.8833 23.2785 13.8833C22.8936 13.8833 22.5244 14.036 22.252 14.3079L20.199 16.3609C19.9268 16.6334 19.7739 17.0028 19.7739 17.3879C19.7739 17.7731 19.9268 18.1425 20.199 18.415Z" fill="#4B4A4A"/>
</svg>
