<svg width="100" height="100" viewBox="0 0 100 100" fill="none" xmlns="http://www.w3.org/2000/svg">
<path d="M80.277 12.498H80.272V8.47805C80.272 8.25086 80.2272 8.0259 80.1403 7.816C80.0534 7.60611 79.9259 7.4154 79.7653 7.25475C79.6046 7.09411 79.4139 6.96668 79.204 6.87973C78.9941 6.79279 78.7692 6.74805 78.542 6.74805H45.672L19.722 32.698V91.517C19.722 92.473 20.496 93.247 21.452 93.247H78.542C78.7692 93.247 78.9941 93.2023 79.204 93.1154C79.4139 93.0284 79.6046 92.901 79.7653 92.7403C79.9259 92.5797 80.0534 92.389 80.1403 92.1791C80.2272 91.9692 80.272 91.7442 80.272 91.517V89.069H80.277V12.498ZM29.679 83.292V36.158H47.402C47.8608 36.158 48.3008 35.9758 48.6253 35.6513C48.9497 35.3269 49.132 34.8869 49.132 34.428V16.705H70.32V83.292H29.679Z" fill="#4B4A4A"/>
</svg>
