<svg width="96" height="74" viewBox="0 0 96 74" fill="none" xmlns="http://www.w3.org/2000/svg">
<path d="M12.022 54.6991H83.979C85.2987 54.6986 86.5642 54.174 87.4973 53.2407C88.4304 52.3074 88.9547 51.0418 88.955 49.7221V5.6281C88.955 4.30838 88.4307 3.04272 87.4975 2.10954C86.5643 1.17636 85.2987 0.6521 83.979 0.6521H12.022C10.7022 0.6521 9.43658 1.17636 8.5034 2.10954C7.57022 3.04272 7.04596 4.30838 7.04596 5.6281V49.7221C7.04583 50.3756 7.17444 51.0228 7.42445 51.6266C7.67446 52.2305 8.04097 52.7791 8.50304 53.2413C8.96512 53.7035 9.51372 54.0701 10.1175 54.3202C10.7213 54.5704 11.3684 54.6991 12.022 54.6991ZM16.998 10.6041H79.003V44.7461H16.998V10.6041Z" fill="#4B4A4A"/>
<path d="M93.325 59.686H2.67498C2.06658 59.686 1.48309 59.9277 1.05288 60.3579C0.62267 60.7881 0.380981 61.3716 0.380981 61.98V67.535C0.380981 68.115 0.598981 68.67 0.989981 69.094L4.23998 72.612C4.45524 72.8435 4.71583 73.0282 5.00554 73.1547C5.29525 73.2811 5.60788 73.3466 5.92398 73.347H89.839C90.451 73.347 91.037 73.102 91.47 72.666L94.955 69.147C95.3795 68.7174 95.618 68.138 95.619 67.534V61.98C95.6187 61.3717 95.3769 60.7884 94.9468 60.3582C94.5166 59.9281 93.9333 59.6863 93.325 59.686ZM56.669 67.655C56.669 67.935 56.484 68.162 56.254 68.162H39.746C39.516 68.162 39.331 67.935 39.331 67.655V65.391C39.331 65.111 39.516 64.887 39.746 64.887H56.254C56.484 64.887 56.669 65.111 56.669 65.391V67.655Z" fill="#4B4A4A"/>
</svg>
