<svg width="100" height="100" viewBox="0 0 100 100" fill="none" xmlns="http://www.w3.org/2000/svg">
<path d="M96.117 57.5831L79.932 49.8641C83.706 47.4911 86.27 42.8481 86.27 37.5101C86.27 29.7561 80.873 23.4761 74.212 23.4761C71.923 23.4761 69.809 24.2571 67.989 25.5421C69.1162 28.4083 69.6933 31.4612 69.69 34.5411C69.69 39.3231 68.279 43.8581 65.865 47.6071C66.678 48.5298 67.6249 49.3253 68.674 49.9671L68.664 49.9701L79.09 54.9411C82.037 56.3681 83.943 59.5241 83.943 62.9861V76.5261H95.091C96.58 76.5261 97.785 75.1251 97.785 73.3961V60.4921C97.785 59.2101 97.126 58.0721 96.117 57.5831Z" fill="#4B4A4A"/>
<path d="M31.567 49.8251C32.4366 49.2648 33.2322 48.5972 33.935 47.8381C31.421 44.0571 29.963 39.4371 29.963 34.5411C29.963 31.2701 30.609 28.1711 31.74 25.3711C29.98 24.1991 27.967 23.4761 25.792 23.4761C19.126 23.4761 13.73 29.7561 13.73 37.5101C13.73 42.9351 16.381 47.6301 20.254 49.9671L3.90499 57.5771C2.88499 58.0561 2.21399 59.2061 2.21399 60.4921V73.3951C2.21399 75.1241 3.42299 76.5251 4.90799 76.5251H15.713V62.9851C15.713 59.4821 17.651 56.3131 20.656 54.9051L31.567 49.8251Z" fill="#4B4A4A"/>
<path d="M76.94 59.3859L62.863 52.6709L56.911 49.8309C59.511 48.1939 61.622 45.6659 63.004 42.6209C64.1567 40.0828 64.753 37.3275 64.753 34.5399C64.753 32.8979 64.493 31.3389 64.13 29.8339C62.359 22.5409 56.664 17.1689 49.828 17.1689C43.12 17.1689 37.512 22.3499 35.632 29.4349C35.198 31.0599 34.899 32.7499 34.899 34.5399C34.899 37.6489 35.626 40.5479 36.86 43.0689C38.287 45.9939 40.402 48.4059 42.976 49.9569L37.274 52.6109L22.74 59.3789C21.478 59.9699 20.648 61.3949 20.648 62.9849V78.9549C20.648 81.0949 22.14 82.8299 23.981 82.8299H75.672C77.513 82.8299 79.005 81.0949 79.005 78.9549V62.9849C79.006 61.4009 78.19 59.9899 76.94 59.3859Z" fill="#4B4A4A"/>
</svg>
